<svg class="animated" id="freepik_stories-business-risk" xmlns="http://www.w3.org/2000/svg" viewBox="0 0 500 500" version="1.1" xmlns:xlink="http://www.w3.org/1999/xlink" xmlns:svgjs="http://svgjs.com/svgjs"><style>svg#freepik_stories-business-risk:not(.animated) .animable {opacity: 0;}svg#freepik_stories-business-risk.animated #freepik--background-simple--inject-68 {animation: 3s Infinite  linear floating;animation-delay: 0s;}svg#freepik_stories-business-risk.animated #freepik--Clouds--inject-68 {animation: 3s Infinite  linear floating;animation-delay: 0s;}svg#freepik_stories-business-risk.animated #freepik--Chart--inject-68 {animation: 3s Infinite  linear floating;animation-delay: 0s;}svg#freepik_stories-business-risk.animated #freepik--Character--inject-68 {animation: 3s Infinite  linear floating;animation-delay: 0s;}            @keyframes floating {                0% {                    opacity: 1;                    transform: translateY(0px);                }                50% {                    transform: translateY(-10px);                }                100% {                    opacity: 1;                    transform: translateY(0px);                }            }        </style><g id="freepik--background-simple--inject-68" class="animable" style="transform-origin: 250.292px 249.715px;"><path d="M456.9,158.46q-3.13-4.56-6.75-8.86c-24.74-29.37-56.62-55-87.6-77.5C318.14,39.9,261.87,7.57,204.84,14.35,90.13,28,3.38,250.93,24.89,300.4s108.26,174.93,199.31,185S435,373.53,455.77,326.21c12-27.36,21.93-56.19,23.09-86.32C480,211.23,473.29,182.3,456.9,158.46Z" style="fill: #77FFC0; transform-origin: 250.292px 249.715px;" id="eld2om72wr3hg" class="animable"></path><g id="ely5c6y12d07p"><path d="M456.9,158.46q-3.13-4.56-6.75-8.86c-24.74-29.37-56.62-55-87.6-77.5C318.14,39.9,261.87,7.57,204.84,14.35,90.13,28,3.38,250.93,24.89,300.4s108.26,174.93,199.31,185S435,373.53,455.77,326.21c12-27.36,21.93-56.19,23.09-86.32C480,211.23,473.29,182.3,456.9,158.46Z" style="fill: rgb(255, 255, 255); opacity: 0.7; transform-origin: 250.292px 249.715px;" class="animable" id="elev1bfqixf3f"></path></g></g><g id="freepik--Water--inject-68" class="animable" style="transform-origin: 253.015px 447.6px;"><path d="M476.4,416.72c-14,0-14,8-27.93,8s-14-8-27.93-8-14,8-27.92,8-14-8-27.93-8-14,8-27.92,8c-13,0-13.89-6.89-25.12-7.88-.87-.08-1.8-.12-2.8-.12-14,0-14,8-27.92,8-13.44,0-13.94-7.41-26.41-8-.48,0-1,0-1.51,0-14,0-14,8-27.92,8s-14-8-27.92-8-14,8-27.92,8-14-8-27.92-8-14,8-27.92,8-14-8-27.92-8-14,8-27.92,8-14-8-27.93-8" style="fill: none; stroke: rgb(38, 50, 56); stroke-miterlimit: 10; transform-origin: 253.02px 420.72px;" id="elq2mpn3j1g28" class="animable"></path><path d="M29.64,434.64c14,0,14,8,27.93,8s14-8,27.92-8,14,8,27.92,8,14-8,27.92-8c7.52,0,11,2.32,14.77,4.46a23.72,23.72,0,0,0,13.15,3.54c14,0,14-8,27.92-8,9.81,0,12.73,3.95,18.44,6.3a24,24,0,0,0,9.48,1.7c14,0,14-8,27.92-8s14,8,27.92,8,14-8,27.92-8,14,8,27.92,8,14-8,27.92-8c9.47,0,12.52,3.68,17.85,6a23.58,23.58,0,0,0,10.08,2c14,0,14-8,27.92-8,11.89,0,13.66,5.79,22.53,7.52a28.26,28.26,0,0,0,5.4.48c14,0,14-8,27.93-8" style="fill: none; stroke: rgb(38, 50, 56); stroke-miterlimit: 10; transform-origin: 253.02px 438.645px;" id="elqqmchclj9qe" class="animable"></path><path d="M29.64,452.56c14,0,14,8,27.93,8s14-8,27.92-8,14,8,27.92,8,14-8,27.92-8,14,8,27.92,8,14-8,27.92-8,14,8,27.92,8,14-8,27.92-8,14,8,27.92,8,14-8,27.92-8,14,8,27.92,8,14-8,27.92-8,14,8,27.93,8,14-8,27.92-8,14,8,27.93,8,14-8,27.93-8" style="fill: none; stroke: rgb(38, 50, 56); stroke-miterlimit: 10; transform-origin: 253.02px 456.56px;" id="elmekspsg23y" class="animable"></path><path d="M476.4,470.48a23.31,23.31,0,0,0-10.62,2.21c-5,2.36-8.17,5.79-17.31,5.79-14,0-14-8-27.93-8-7,0-10.45,2-13.93,4s-7,4-14,4c-14,0-14-8-27.93-8s-14,8-27.92,8-14-8-27.92-8-14,8-27.92,8-14-8-27.92-8-14,8-27.92,8-14-8-27.92-8-14,8-27.92,8-14-8-27.92-8-14,8-27.92,8-14-8-27.92-8-14,8-27.92,8-14-8-27.93-8" style="fill: none; stroke: rgb(38, 50, 56); stroke-miterlimit: 10; transform-origin: 253.015px 474.475px;" id="elph5lcixqbfq" class="animable"></path></g><g id="freepik--Sharks--inject-68" class="animable animator-active" style="transform-origin: 270.261px 421.095px;"><path d="M270.77,458.94c-5.71-2.35-8.63-6.3-18.44-6.3-14,0-14,8-27.92,8a23.72,23.72,0,0,1-13.15-3.54c2.38-6.16,7-18.71,7-23,0-5.83-5.83-21.36-8.42-25.89s-1.29-5.82-1.29-5.82,29.12,9.06,42.71,25.88A159.06,159.06,0,0,1,270.77,458.94Z" style="fill: rgb(38, 50, 56); stroke: rgb(38, 50, 56); stroke-miterlimit: 10; transform-origin: 239.497px 431.52px;" id="elf5j19l0swzl" class="animable"></path><path d="M311.65,416.84c-.87-.08-1.8-.12-2.8-.12-14,0-14,8-27.92,8-13.44,0-13.94-7.41-26.41-8,2.49-6.54,6.36-17.34,6.36-21.29,0-5.83-5.82-21.36-8.41-25.89s-1.29-5.83-1.29-5.83,29.12,9.07,42.71,25.89A164.08,164.08,0,0,1,311.65,416.84Z" style="fill: rgb(38, 50, 56); stroke: rgb(38, 50, 56); stroke-miterlimit: 10; transform-origin: 281.252px 394.215px;" id="eljxu3jo11u9" class="animable"></path><path d="M443.87,389c-2.58,4.53-8.41,20.07-8.41,25.89s8.41,26.54,8.41,26.54a9.09,9.09,0,0,1-.8.75c-8.87-1.73-10.64-7.52-22.53-7.52-14,0-14,8-27.92,8a23.58,23.58,0,0,1-10.08-2,157.92,157.92,0,0,1,19.91-31.63c13.59-16.83,42.72-25.89,42.72-25.89S446.46,384.45,443.87,389Z" style="fill: rgb(38, 50, 56); stroke: rgb(38, 50, 56); stroke-miterlimit: 10; transform-origin: 414.016px 412.903px;" id="elmtxxid3dae" class="animable"></path><path d="M132.29,424.13c-2.59,4.53-8.41,20.06-8.41,25.88,0,4.25,4.47,16.4,6.89,22.68-5,2.36-8.17,5.79-17.31,5.79-14,0-14-8-27.93-8-7,0-10.45,2-13.93,4a160.51,160.51,0,0,1,19.27-30.27c13.59-16.83,42.72-25.89,42.72-25.89S134.88,419.6,132.29,424.13Z" style="fill: rgb(38, 50, 56); stroke: rgb(38, 50, 56); stroke-miterlimit: 10; transform-origin: 102.756px 448.4px;" id="elg4gky5d06oq" class="animable"></path><path d="M467.3,424.13c-2.59,4.53-8.41,20.06-8.41,25.88,0,4.25,4.47,16.4,6.89,22.68-5,2.36-8.17,5.79-17.31,5.79-14,0-14-8-27.93-8-7,0-10.45,2-13.93,4a160.51,160.51,0,0,1,19.27-30.27c13.59-16.83,42.72-25.89,42.72-25.89S469.89,419.6,467.3,424.13Z" style="fill: rgb(38, 50, 56); stroke: rgb(38, 50, 56); stroke-miterlimit: 10; transform-origin: 437.766px 448.4px;" id="elp3ormfsfkae" class="animable"></path></g><g id="freepik--Clouds--inject-68" class="animable" style="transform-origin: 256.548px 209.361px;"><path d="M397,111.72a27,27,0,0,0-3,7.82c-1.16,5.22-5.22,8.13-13.93,4.06s-16.84-1.74-19.16,4.65-3.48,11.61-13.35,9.29-15.1-2.91-18,1.16a20.24,20.24,0,0,0-3.49,7H456.36" style="fill: none; stroke: rgb(38, 50, 56); stroke-miterlimit: 10; transform-origin: 391.215px 128.71px;" id="elfn90uu2a93t" class="animable"></path><path d="M462.75,145.67h18.94c1.16,0-1.84-9-2.18-9.52-6.62-10.74-16-2.55-25.1-5.58,0,0-12.19-31.35-33.68-30.77-10.09.27-16.34,3.49-20.25,7.37" style="fill: none; stroke: rgb(38, 50, 56); stroke-miterlimit: 10; transform-origin: 441.218px 122.731px;" id="eluhviedrnucl" class="animable"></path><path d="M54.74,225.79h84.74c.8,0-1.28-6.24-1.52-6.63-4.61-7.47-11.16-1.77-17.48-3.88,0,0-4.8-12.35-13.55-18.3" style="fill: none; stroke: rgb(38, 50, 56); stroke-miterlimit: 10; transform-origin: 97.2011px 211.385px;" id="elgg78l8ck8kt" class="animable"></path><path d="M102.34,194.66a15.3,15.3,0,0,0-5.31-.81c-15,.41-17.78,10.11-18.59,13.75s-3.64,5.66-9.7,2.83S57,209.22,55.4,213.66s-2.43,8.09-9.3,6.47-10.51-2-12.53.81a14.27,14.27,0,0,0-2.43,4.85H47.93" style="fill: none; stroke: rgb(38, 50, 56); stroke-miterlimit: 10; transform-origin: 66.74px 209.818px;" id="eluej9043vwij" class="animable"></path><path d="M322.61,288.08a15.58,15.58,0,0,0-6.09-1.09c-15,.41-17.78,10.11-18.59,13.75s-3.64,5.66-9.71,2.83-11.72-1.21-13.34,3.23-2.42,8.09-9.29,6.47-10.51-2-12.54.81a14.1,14.1,0,0,0-2.42,4.85H359c.8,0-1.29-6.24-1.52-6.63-4.61-7.48-11.16-1.77-17.48-3.88,0,0-4.11-10.56-11.64-16.86" style="fill: none; stroke: rgb(38, 50, 56); stroke-miterlimit: 10; transform-origin: 304.906px 302.958px;" id="elrorrw28l5e8" class="animable"></path></g><g id="freepik--Chart--inject-68" class="animable" style="transform-origin: 213.02px 327.61px;"><polyline points="42.42 359.03 116.15 297.75 174.01 285.71 248.58 248.11 384.56 407.9" style="fill: none; stroke: rgb(38, 50, 56); stroke-miterlimit: 10; stroke-width: 4px; transform-origin: 213.49px 328.005px;" id="el0rsn1sb9gfv" class="animable"></polyline><path d="M254.2,248.11a5.62,5.62,0,1,0-5.62,5.62A5.62,5.62,0,0,0,254.2,248.11Z" style="fill: #77FFC0; stroke: rgb(38, 50, 56); stroke-miterlimit: 10; stroke-width: 2px; transform-origin: 248.58px 248.11px;" id="eltv617xd7hq" class="animable"></path><path d="M180.38,284.16a5.62,5.62,0,1,0-5.62,5.62A5.61,5.61,0,0,0,180.38,284.16Z" style="fill: #77FFC0; stroke: rgb(38, 50, 56); stroke-miterlimit: 10; stroke-width: 2px; transform-origin: 174.76px 284.16px;" id="elb7ie5axbqg" class="animable"></path><path d="M121.77,297.75a5.62,5.62,0,1,0-5.62,5.62A5.62,5.62,0,0,0,121.77,297.75Z" style="fill: #77FFC0; stroke: rgb(38, 50, 56); stroke-miterlimit: 10; stroke-width: 2px; transform-origin: 116.15px 297.75px;" id="elzf3txmv8mnl" class="animable"></path><path d="M389.24,407.11a5.62,5.62,0,1,0-5.62,5.62A5.62,5.62,0,0,0,389.24,407.11Z" style="fill: #77FFC0; stroke: rgb(38, 50, 56); stroke-miterlimit: 10; stroke-width: 2px; transform-origin: 383.62px 407.11px;" id="el2v390jnro0o" class="animable"></path><circle cx="42.42" cy="359.03" r="5.62" style="fill: #77FFC0; stroke: rgb(38, 50, 56); stroke-miterlimit: 10; stroke-width: 2px; transform-origin: 42.42px 359.03px;" id="elywscp81nrtm" class="animable"></circle></g><g id="freepik--Character--inject-68" class="animable" style="transform-origin: 252.583px 128.474px;"><path d="M229.91,123.69s2.85,26.32,5.45,36.75,4,19,4,19l.71,53.11,9-.95L259.31,178l.47-36.27,14.23,36-11.86,33.9,8.3,5L294.4,174.9l-12.33-49.31-22.52-10Z" style="fill: rgb(38, 50, 56); stroke: rgb(38, 50, 56); stroke-miterlimit: 10; transform-origin: 262.155px 174.07px;" id="el378wuu7qqm8" class="animable"></path><polygon points="222.92 92.15 223.25 97.69 212.01 97.52 211.51 92.82 222.92 92.15" style="fill: rgb(255, 255, 255); stroke: rgb(38, 50, 56); stroke-miterlimit: 10; transform-origin: 217.38px 94.92px;" id="el561vika265i" class="animable"></polygon><path d="M272.08,32.83l-19.92-.14c-.72,0-44.45,21.65-44.45,23.24s2.74,38.68,2.74,38.68L224.16,94l-.86-29.59,15.44-3.89s-9.67,41.56-10,47.63-1,17.89-1,17.89,18.19,5.63,22.08,6.21,7.8,1.59,7.8,1.59l3.46-4.91,3.47,5.77s7.93-2.31,11.54-3.32,8.23-2.88,8.23-2.88l-3.18-16.46L282,99.23l9.82-20.64,8.94,10,3.47,4.9L320,97.21,305,59.39l-5.77-13.28S289.4,37.6,287,36.3,272.08,32.83,272.08,32.83Z" style="fill: #77FFC0; stroke: rgb(38, 50, 56); stroke-miterlimit: 10; transform-origin: 263.855px 83.695px;" id="elc5r65njfo2k" class="animable"></path><path d="M279.73,32.83h-7.65L261.55,46.55l4.33,3.6-6.79,7.37,3,19.19-3,2.31,33.63-12.84.15-6.36,5.05,1.74V45a57.68,57.68,0,0,0-9.1-7.51A61,61,0,0,0,279.73,32.83Z" style="fill: #77FFC0; stroke: rgb(38, 50, 56); stroke-miterlimit: 10; transform-origin: 278.505px 55.925px;" id="elzqwptjyjrt" class="animable"></path><path d="M284.93,32.55l-5.2.28s-1.3.58-5.05,12.85-8.95,28-8.95,28,20.64-16.6,24.1-21.07,5.06-6.79,5.06-6.79S295.17,35.29,284.93,32.55Z" style="fill: rgb(255, 255, 255); stroke: rgb(38, 50, 56); stroke-miterlimit: 10; transform-origin: 280.31px 53.115px;" id="eldx99v09my5a" class="animable"></path><path d="M289.83,52.61c3.47-4.48,5.06-6.79,5.06-6.79s.28-10.53-10-13.27l-5.2.28s-1.3.58-5.05,12.85c-.58,1.88-1.19,3.85-1.81,5.83l10.33-.2,2,6A46.07,46.07,0,0,0,289.83,52.61Z" style="fill: rgb(255, 255, 255); stroke: rgb(38, 50, 56); stroke-miterlimit: 10; transform-origin: 283.86px 44.93px;" id="el3wx5oz0u1va" class="animable"></path><path d="M277.42,51l1.88,4.33-10.24,8.11c-1.9,5.89-3.33,10.22-3.33,10.22S274,67,281,61l.79-4.36,4-1.44-.57-6.93Z" style="fill: rgb(38, 50, 56); stroke: rgb(38, 50, 56); stroke-linecap: round; stroke-linejoin: round; transform-origin: 275.76px 60.965px;" id="el2qfdyhxce7h" class="animable"></path><path d="M279.88,84.75s-2.12,2-1.54,2.92,4,4,5.15,3.49,1.83-2.34,1.26-3.15S279.88,84.75,279.88,84.75Z" style="fill: rgb(255, 255, 255); stroke: rgb(38, 50, 56); stroke-miterlimit: 10; transform-origin: 281.597px 87.9833px;" id="elo793v3newds" class="animable"></path><path d="M296.33,87.1l-2.6-2.31S283.2,76.57,282,77.43s-3.32,4.91-1.88,6.64,4.48,3.18,5.06,3.75,2.59,3.61,4.47,4.48a5.3,5.3,0,0,0,3.61.29l2.45,2.6S297.2,89.27,296.33,87.1Z" style="fill: rgb(255, 255, 255); stroke: rgb(38, 50, 56); stroke-miterlimit: 10; transform-origin: 288.12px 86.2785px;" id="el3e4m8yyztcb" class="animable"></path><path d="M283.76,78a1.79,1.79,0,0,0-1.72-.54c-1.62.48-3.9,5.49-3,6.35s2,2.63,2.6,1.74c4.6-6.52,3.23-6.86,3.23-6.86Z" style="fill: rgb(255, 255, 255); stroke: rgb(38, 50, 56); stroke-miterlimit: 10; transform-origin: 281.949px 81.6046px;" id="elh42swddh41" class="animable"></path><path d="M285.18,78.9s-3,4.89-3.52,5.52-.54,1.22-.29,1.52a15.48,15.48,0,0,0,2.83,1.61c.64.24,1.27-2.3,2.25-3.57s2.2-2.25,2.2-2.78S286.7,78.85,285.18,78.9Z" style="fill: rgb(255, 255, 255); stroke: rgb(38, 50, 56); stroke-miterlimit: 10; transform-origin: 284.932px 83.2324px;" id="eln0bmc1pjed8" class="animable"></path><path d="M285.33,86.52s-1.13,1.71-1,2a6.32,6.32,0,0,0,2,1.32c.49.14,3.57-5,4.35-5.53s.3-1.8-.34-2.29a3.73,3.73,0,0,0-1.95-.44A33.7,33.7,0,0,0,285.33,86.52Z" style="fill: rgb(255, 255, 255); stroke: rgb(38, 50, 56); stroke-miterlimit: 10; transform-origin: 287.702px 85.7091px;" id="elznvqim8zfka" class="animable"></path><path d="M291,88.57l-.35.4s1,1.17.83,1.8a1.45,1.45,0,0,1-2.1.54c-.93-.49-2.54-1.22-2.49-1.56s3.81-5.43,3.81-5.43.34-1.17.73-1.12a9,9,0,0,1,1.86,1.37" style="fill: rgb(255, 255, 255); stroke: rgb(38, 50, 56); stroke-miterlimit: 10; transform-origin: 290.089px 87.378px;" id="elzqpnjr1bstd" class="animable"></path><polygon points="296.33 87.1 295.03 86.28 293.02 96.01 296.37 96.34 296.33 87.1" style="fill: rgb(255, 255, 255); stroke: rgb(38, 50, 56); stroke-miterlimit: 10; transform-origin: 294.695px 91.31px;" id="elz29nyusyorl" class="animable"></polygon><path d="M313.36,88.4l-17-1.3-1.88,10.83s26.27,6.64,27.57,5.48.87-3.17.15-4.76-5.78-9.09-5.78-9.09" style="fill: #77FFC0; stroke: rgb(38, 50, 56); stroke-miterlimit: 10; transform-origin: 308.683px 95.323px;" id="el4p9fg0brckq" class="animable"></path><path d="M259.82,122.23a34.13,34.13,0,0,0,1,3.8" style="fill: none; stroke: rgb(38, 50, 56); stroke-miterlimit: 10; transform-origin: 260.32px 124.13px;" id="elegrw6hxgla9" class="animable"></path><path d="M258,91a197.83,197.83,0,0,0,.88,25.58" style="fill: none; stroke: rgb(38, 50, 56); stroke-miterlimit: 10; transform-origin: 258.394px 103.79px;" id="el48ldx5puss7" class="animable"></path><path d="M258.3,83.43s-.08,1.53-.17,4" style="fill: none; stroke: rgb(38, 50, 56); stroke-miterlimit: 10; transform-origin: 258.215px 85.43px;" id="el1cbibha6l7u" class="animable"></path><line x1="244.91" y1="58.49" x2="248.07" y2="57.44" style="fill: none; stroke: rgb(38, 50, 56); stroke-miterlimit: 10; transform-origin: 246.49px 57.965px;" id="el3ceu0czkj9d" class="animable"></line><line x1="238.74" y1="60.55" x2="242.26" y2="59.37" style="fill: none; stroke: rgb(38, 50, 56); stroke-miterlimit: 10; transform-origin: 240.5px 59.96px;" id="ell5jnh9mjt9o" class="animable"></line><line x1="296.52" y1="72.03" x2="298.55" y2="69.18" style="fill: none; stroke: rgb(38, 50, 56); stroke-miterlimit: 10; transform-origin: 297.535px 70.605px;" id="eld0r4yotgaj" class="animable"></line><line x1="291.86" y1="78.59" x2="294.9" y2="74.31" style="fill: none; stroke: rgb(38, 50, 56); stroke-miterlimit: 10; transform-origin: 293.38px 76.45px;" id="el78p79mtgroc" class="animable"></line><path d="M248,231.71s12.76,2.73,17.64,2.73,3,2.29,1.58,3.15-14.49,4.45-18.5,5.16-7.89,1-8.47.72-.13-11-.13-11Z" style="fill: rgb(255, 255, 255); stroke: rgb(38, 50, 56); stroke-miterlimit: 10; transform-origin: 254.374px 237.643px;" id="ele5sg6m6gcul" class="animable"></path><path d="M262.15,211.65s-6.14,9.59-6,10.88.86,2.15,5.31,2.87,11.33,3.73,15.78,4.45,7.6-.43,7.46-1.44-14.25-11.78-14.25-11.78Z" style="fill: rgb(255, 255, 255); stroke: rgb(38, 50, 56); stroke-miterlimit: 10; transform-origin: 270.426px 220.863px;" id="elmrw71zisr1p" class="animable"></path><path d="M318.27,33.12s-2.6,5.49-3.75,6.79-2.89,1.87-3,2.45-1.29,7.22-2.45,7.79-3,0-3.46,0-7.8,5.06-8.66,4.33a50.06,50.06,0,0,1-3.61-4.33s-10.1,1.88-10.25.15a66.84,66.84,0,0,1,.29-11.69,30,30,0,0,1,1.59-6.06l3.46-1.3s4.19-15.88,9.38-17.61S316,19.12,319,23.89,320.87,31.68,318.27,33.12Z" style="fill: rgb(255, 255, 255); stroke: rgb(38, 50, 56); stroke-linecap: round; stroke-linejoin: round; transform-origin: 301.875px 33.9648px;" id="el6oj7z8dxjn7" class="animable"></path><path d="M319,23.89c-3-4.77-16-12-21.22-10.25s-9.38,17.61-9.38,17.61l-.54.2a23.5,23.5,0,0,0,6,3c2.74.72,3.89-2.74,4.61-2.74s1.3,1.15,3.47,2.16,1.44-3.17,1.44-3.17,3.18,1.73,5.49,1.3-.29-5.78.14-7.36,9.24,8.51,9.24,8.51C320.87,31.68,322,28.65,319,23.89Z" style="fill: rgb(38, 50, 56); stroke: rgb(38, 50, 56); stroke-linecap: round; stroke-linejoin: round; transform-origin: 304.325px 23.9605px;" id="el5o40hh0vd9" class="animable"></path><path d="M299.36,34.42s2.31-6.93-1.73-6.64-4.19,4.77-3.75,6.64,1.44,2.31,1.44,2.31" style="fill: rgb(255, 255, 255); stroke: rgb(38, 50, 56); stroke-linecap: round; stroke-linejoin: round; transform-origin: 296.864px 32.2506px;" id="ela2b1uelu06t" class="animable"></path><path d="M293.3,50.15s-2.46-3.46-2.46-4.47S292,39.62,292,39.62l-5.63,11Z" style="fill: rgb(38, 50, 56); stroke: rgb(38, 50, 56); stroke-linecap: round; stroke-linejoin: round; transform-origin: 289.835px 45.12px;" id="elne4u4ng1u3f" class="animable"></path><path d="M309.07,41.7c-.73.55-1.54.71-1.8.36s.12-1.08.85-1.63,1.54-.72,1.81-.36S309.81,41.15,309.07,41.7Z" style="fill: rgb(38, 50, 56); transform-origin: 308.602px 41.0628px;" id="eli1fs6fn9hq" class="animable"></path><path d="M302,49.35c-.73.55-1.54.71-1.8.36s.12-1.08.85-1.63,1.54-.72,1.8-.36S302.74,48.8,302,49.35Z" style="fill: rgb(38, 50, 56); transform-origin: 301.526px 48.7128px;" id="elk0xs5bgag5j" class="animable"></path><path d="M309.46,37.16a2.2,2.2,0,0,1,3.18,1.59" style="fill: none; stroke: rgb(38, 50, 56); stroke-linecap: round; stroke-linejoin: round; transform-origin: 311.05px 37.8321px;" id="el7394cw7uxlk" class="animable"></path><path d="M205.76,107.66l-.35,9.34,25,.94.35-9.33a3.58,3.58,0,0,0-3.44-3.71l-17.82-.67A3.57,3.57,0,0,0,205.76,107.66Zm22.6,8.39-20.8-.79.21-5.7a3.58,3.58,0,0,1,3.71-3.44l13.67.52a3.56,3.56,0,0,1,3.43,3.71Z" style="fill: rgb(255, 255, 255); stroke: rgb(38, 50, 56); stroke-miterlimit: 10; transform-origin: 218.086px 111.083px;" id="elgcflopctksn" class="animable"></path><path d="M187.15,113.45,248,115.76l1.69,43.3a4.51,4.51,0,0,1-4.65,4.68l-58.4-1.82a4.49,4.49,0,0,1-4.33-5Z" style="fill: rgb(255, 255, 255); stroke: rgb(38, 50, 56); stroke-miterlimit: 10; transform-origin: 215.987px 138.596px;" id="elvcyxrnco8vf" class="animable"></path><path d="M189.23,116.91s24.15,26.35,28.73,25.58,28.34-23.84,28.34-23.84" style="fill: none; stroke: rgb(38, 50, 56); stroke-miterlimit: 10; transform-origin: 217.765px 129.708px;" id="el70v5jhpildn" class="animable"></path><path d="M223.92,103.22l-1.65-5.55-9.49-.14c-.37,1.8-1.08,5.18-1.44,6.86-.5,2.35-.5,4.2.17,5.37s8.05,1.68,8.05,1.68.84,1.67,1.68,1.84,2.35.17,2.68-.84S223.92,103.22,223.92,103.22Z" style="fill: rgb(255, 255, 255); stroke: rgb(38, 50, 56); stroke-miterlimit: 10; transform-origin: 217.525px 105.447px;" id="el2uxwo2vbnte" class="animable"></path><line x1="232.53" y1="184.51" x2="234.27" y2="214.7" style="fill: none; stroke: rgb(38, 50, 56); stroke-miterlimit: 10; transform-origin: 233.4px 199.605px;" id="elds3aejvkm2" class="animable"></line><line x1="229.63" y1="196.7" x2="230.79" y2="219.35" style="fill: none; stroke: rgb(38, 50, 56); stroke-miterlimit: 10; transform-origin: 230.21px 208.025px;" id="elecwz7fb4tqm" class="animable"></line><line x1="294.07" y1="188.57" x2="283.04" y2="204.83" style="fill: none; stroke: rgb(38, 50, 56); stroke-miterlimit: 10; transform-origin: 288.555px 196.7px;" id="elgyjzyrvx7km" class="animable"></line><line x1="292.33" y1="199.03" x2="283.04" y2="211.22" style="fill: none; stroke: rgb(38, 50, 56); stroke-miterlimit: 10; transform-origin: 287.685px 205.125px;" id="el20mdysrj0fa" class="animable"></line><line x1="249.95" y1="27.16" x2="225.56" y2="39.94" style="fill: none; stroke: rgb(38, 50, 56); stroke-miterlimit: 10; transform-origin: 237.755px 33.55px;" id="elg092q9jmwjk" class="animable"></line><line x1="234.27" y1="31.81" x2="216.27" y2="41.1" style="fill: none; stroke: rgb(38, 50, 56); stroke-miterlimit: 10; transform-origin: 225.27px 36.455px;" id="eljag4oqjl82" class="animable"></line></g><defs>     <filter id="active" height="200%">         <feMorphology in="SourceAlpha" result="DILATED" operator="dilate" radius="2"></feMorphology>                <feFlood flood-color="#32DFEC" flood-opacity="1" result="PINK"></feFlood>        <feComposite in="PINK" in2="DILATED" operator="in" result="OUTLINE"></feComposite>        <feMerge>            <feMergeNode in="OUTLINE"></feMergeNode>            <feMergeNode in="SourceGraphic"></feMergeNode>        </feMerge>    </filter>    <filter id="hover" height="200%">        <feMorphology in="SourceAlpha" result="DILATED" operator="dilate" radius="2"></feMorphology>                <feFlood flood-color="#ff0000" flood-opacity="0.5" result="PINK"></feFlood>        <feComposite in="PINK" in2="DILATED" operator="in" result="OUTLINE"></feComposite>        <feMerge>            <feMergeNode in="OUTLINE"></feMergeNode>            <feMergeNode in="SourceGraphic"></feMergeNode>        </feMerge>            <feColorMatrix type="matrix" values="0   0   0   0   0                0   1   0   0   0                0   0   0   0   0                0   0   0   1   0 "></feColorMatrix>    </filter></defs></svg>